<?xml version="1.0" standalone="no"?>
<!DOCTYPE svg PUBLIC "-//W3C//DTD SVG 20010904//EN"
 "http://www.w3.org/TR/2001/REC-SVG-20010904/DTD/svg10.dtd">
<svg version="1.0" xmlns="http://www.w3.org/2000/svg"
 width="16.000000pt" height="16.000000pt" viewBox="0 0 16.000000 16.000000"
 preserveAspectRatio="xMidYMid meet">
<metadata>
Created by potrace 1.11, written by Peter Selinger 2001-2013
</metadata>
<g transform="translate(0.000000,16.000000) scale(0.004444,-0.004444)"
fill="#000000" stroke="none">
<path d="M2180 2671 c-48 -15 -70 -23 -70 -28 0 -2 11 -16 25 -31 62 -66 115
-207 115 -306 0 -20 4 -36 8 -36 21 0 101 -64 129 -102 31 -44 63 -136 63
-183 0 -41 -30 -136 -53 -170 -27 -39 -34 -45 -82 -76 -86 -55 -79 -54 -520
-54 l-410 0 -65 36 c-117 64 -170 167 -156 302 3 32 13 75 23 95 17 38 92 118
128 138 16 9 22 26 27 85 5 41 12 87 18 103 14 41 14 42 -24 60 -48 23 -131
21 -172 -4 -41 -26 -73 -79 -81 -135 -5 -39 -8 -44 -39 -49 -22 -5 -46 -22
-73 -53 -38 -42 -41 -50 -41 -104 0 -56 -1 -59 -27 -65 -55 -12 -63 -16 -93
-40 -84 -71 -80 -199 9 -265 25 -18 29 -27 24 -53 -6 -39 29 -118 65 -146 13
-11 41 -24 61 -30 22 -6 353 -10 842 -11 908 -1 849 -6 904 76 17 24 33 45 36
45 18 0 69 64 84 104 15 40 16 51 4 91 -7 25 -28 59 -45 76 -31 30 -31 31 -17
72 36 105 -43 217 -154 217 l-38 0 -1 49 c-2 53 -14 82 -51 119 -28 28 -108
55 -136 46 -18 -6 -19 -3 -14 26 13 61 -2 108 -50 156 -25 25 -54 44 -66 44
-12 0 -31 2 -42 4 -11 2 -31 1 -45 -3z"/>
<path d="M3085 1466 c-40 -9 -69 -10 -87 -4 -41 15 -430 6 -436 -9 -5 -18 -28
-16 -57 3 -19 12 -45 15 -119 12 -82 -3 -98 -6 -119 -26 l-25 -23 -16 23 c-16
22 -22 23 -131 23 -136 0 -147 -7 -169 -100 -20 -86 -36 -178 -36 -203 0 -46
-57 -7 -65 46 -4 20 -10 51 -15 67 -4 17 -13 56 -20 87 -8 36 -22 66 -37 80
-22 21 -34 23 -128 23 -83 0 -106 -3 -122 -17 -18 -17 -20 -17 -36 0 -14 14
-35 17 -105 16 -101 -1 -112 -1 -253 0 -88 1 -110 -2 -126 -16 -18 -17 -20
-17 -36 0 -14 13 -39 18 -110 21 -106 4 -144 -10 -170 -62 -9 -18 -41 -77 -72
-132 -31 -55 -61 -110 -67 -122 -13 -27 -33 -31 -24 -6 4 10 14 63 21 118 25
178 -1 210 -170 203 -133 -4 -140 -13 -175 -208 -6 -36 -16 -85 -20 -110 -27
-134 -31 -198 -16 -233 8 -20 23 -40 34 -46 13 -7 108 -11 261 -11 228 0 242
1 261 20 25 25 35 25 62 0 19 -18 36 -20 133 -20 98 0 114 2 133 20 l22 20 31
-30 c46 -43 96 -42 143 4 l34 35 23 -25 c21 -22 30 -24 114 -24 84 0 93 2 115
25 l23 25 25 -25 c23 -23 31 -25 129 -25 57 0 124 -5 149 -11 34 -9 63 -9 122
1 42 7 82 17 89 22 7 5 14 5 18 -2 3 -6 45 -10 99 -10 85 0 95 2 117 24 l25
24 22 -23 c23 -24 24 -24 264 -24 l241 0 32 32 32 32 24 -23 c37 -35 121 -62
193 -62 118 0 212 47 281 141 50 67 77 213 61 324 -6 40 -16 57 -59 100 -45
44 -60 53 -111 63 -73 15 -123 14 -201 -2z m216 -111 c46 -24 62 -66 57 -155
-4 -104 -43 -182 -110 -223 -41 -25 -57 -29 -122 -30 -134 -1 -171 33 -170
153 3 192 95 289 262 274 30 -2 67 -11 83 -19z m-2874 -22 c-3 -21 -11 -65
-17 -98 -6 -33 -15 -85 -20 -115 -4 -30 -11 -63 -15 -72 -6 -16 1 -18 80 -18
75 0 86 -2 81 -16 -3 -9 -6 -24 -6 -35 0 -18 -9 -19 -150 -19 l-151 0 6 38 c3
20 10 61 15 90 6 28 14 76 20 105 5 28 14 80 21 115 l12 62 65 0 65 0 -6 -37z
m462 -20 c32 -159 54 -272 61 -310 l7 -43 -68 0 c-67 0 -67 0 -74 30 -7 30 -7
30 -78 30 -70 0 -72 -1 -85 -30 -13 -27 -18 -30 -63 -30 l-49 0 42 78 c23 42
52 95 65 117 12 22 37 69 55 105 18 36 35 67 38 70 4 3 9 13 13 23 5 13 18 17
65 17 l59 0 12 -57z m300 20 c5 -21 12 -50 15 -65 7 -33 26 -37 33 -8 3 11 9
20 14 20 5 0 9 7 9 15 0 8 4 15 8 15 4 0 13 14 19 30 11 28 15 30 63 30 28 0
50 -3 48 -7 -3 -5 -11 -23 -18 -40 -8 -18 -18 -33 -22 -33 -4 0 -8 -7 -8 -15
0 -8 -4 -15 -10 -15 -5 0 -10 -4 -10 -9 0 -5 -16 -35 -35 -67 -99 -167 -141
-233 -146 -234 -6 0 -37 112 -64 235 -7 33 -20 86 -29 118 -9 32 -16 60 -16
62 0 3 31 5 70 5 l69 0 10 -37z m502 -8 c6 -36 14 -75 40 -190 12 -55 29 -147
29 -162 0 -9 -21 -13 -70 -13 l-70 0 0 30 0 30 -72 0 c-71 0 -74 -1 -90 -30
-15 -26 -22 -30 -63 -30 -25 0 -45 2 -45 4 0 8 121 233 167 311 13 22 28 53
34 68 11 27 14 28 73 25 l61 -3 6 -40z m465 13 c-9 -41 -35 -198 -43 -257 -12
-89 -105 -138 -247 -129 -82 5 -91 13 -77 66 l11 40 31 -15 c58 -29 149 1 149
50 0 11 4 36 9 56 5 20 15 68 21 106 20 126 12 115 86 115 l67 0 -7 -32z m313
-25 c6 -32 15 -78 21 -103 5 -25 17 -81 25 -125 8 -44 17 -90 21 -102 6 -22 4
-23 -64 -23 -69 0 -70 0 -75 30 -6 30 -7 30 -77 30 -68 0 -72 -1 -88 -30 -15
-27 -22 -30 -65 -30 l-48 0 32 58 c18 31 48 89 68 127 20 39 39 72 42 75 3 3
12 20 20 38 8 17 17 32 20 32 4 0 10 12 14 27 11 45 23 53 85 53 l58 0 11 -57z
m497 41 c-3 -9 -6 -27 -6 -40 0 -22 -4 -24 -54 -24 l-54 0 -10 -47 c-6 -27
-15 -73 -20 -103 -6 -30 -16 -83 -22 -117 l-13 -63 -63 0 -63 0 5 33 c3 17 9
52 14 77 5 25 14 77 19 115 5 39 12 78 16 88 6 15 0 17 -49 17 -31 0 -56 4
-56 9 0 5 3 23 6 40 l7 31 174 0 c156 0 174 -2 169 -16z"/>
<path d="M3123 1270 c-40 -46 -59 -205 -29 -236 21 -20 59 -17 84 6 45 42 73
230 36 244 -32 12 -74 6 -91 -14z"/>
<path d="M757 1183 c-18 -30 -47 -84 -47 -88 0 -3 19 -5 41 -5 l42 0 -6 41
c-5 42 -20 68 -30 52z"/>
<path d="M1547 1152 c-15 -30 -27 -56 -27 -58 0 -2 18 -4 40 -4 22 0 40 1 40
3 -1 1 -7 27 -14 57 l-12 55 -27 -53z"/>
<path d="M2319 1153 c-13 -26 -25 -51 -27 -55 -2 -5 15 -8 38 -8 l41 0 -7 48
c-3 26 -10 51 -14 55 -4 5 -18 -13 -31 -40z"/>
</g>
</svg>
